<mxfile host="Electron" modified="2023-08-16T17:25:07.178Z" agent="Mozilla/5.0 (Windows NT 10.0; Win64; x64) AppleWebKit/537.36 (KHTML, like Gecko) draw.io/21.6.5 Chrome/114.0.5735.243 Electron/25.3.1 Safari/537.36" etag="y5ey2zTw_UGw7qpvNky8" version="21.6.5" type="device">
  <diagram name="Flow" id="raqGKYXKGMsi2gpzmmi7">
    <mxGraphModel dx="1143" dy="801" grid="1" gridSize="10" guides="1" tooltips="1" connect="1" arrows="1" fold="1" page="1" pageScale="1" pageWidth="1100" pageHeight="850" math="0" shadow="0">
      <root>
        <mxCell id="0" />
        <mxCell id="1" parent="0" />
        <mxCell id="e7t6njS4XYZWmjXGl31m-3" style="edgeStyle=orthogonalEdgeStyle;rounded=1;orthogonalLoop=1;jettySize=auto;html=1;fontFamily=Helvetica;fontSize=22;fontColor=default;strokeColor=#004C99;strokeWidth=3;" parent="1" source="e7t6njS4XYZWmjXGl31m-1" target="e7t6njS4XYZWmjXGl31m-2" edge="1">
          <mxGeometry relative="1" as="geometry" />
        </mxCell>
        <mxCell id="e7t6njS4XYZWmjXGl31m-8" style="edgeStyle=orthogonalEdgeStyle;shape=connector;rounded=1;orthogonalLoop=1;jettySize=auto;html=1;entryX=0;entryY=0.5;entryDx=0;entryDy=0;labelBackgroundColor=default;strokeColor=#004C99;strokeWidth=3;fontFamily=Helvetica;fontSize=22;fontColor=default;endArrow=classic;" parent="1" source="e7t6njS4XYZWmjXGl31m-1" target="e7t6njS4XYZWmjXGl31m-6" edge="1">
          <mxGeometry relative="1" as="geometry" />
        </mxCell>
        <mxCell id="e7t6njS4XYZWmjXGl31m-9" style="edgeStyle=orthogonalEdgeStyle;shape=connector;rounded=1;orthogonalLoop=1;jettySize=auto;html=1;entryX=0;entryY=0.5;entryDx=0;entryDy=0;labelBackgroundColor=default;strokeColor=#004C99;strokeWidth=3;fontFamily=Helvetica;fontSize=22;fontColor=default;endArrow=classic;" parent="1" source="e7t6njS4XYZWmjXGl31m-1" target="e7t6njS4XYZWmjXGl31m-7" edge="1">
          <mxGeometry relative="1" as="geometry" />
        </mxCell>
        <mxCell id="_mrY1hBwHzIdx077osYN-2" style="edgeStyle=orthogonalEdgeStyle;shape=connector;rounded=1;orthogonalLoop=1;jettySize=auto;html=1;entryX=0;entryY=0.5;entryDx=0;entryDy=0;labelBackgroundColor=default;strokeColor=#004C99;strokeWidth=3;fontFamily=Helvetica;fontSize=22;fontColor=default;endArrow=classic;" edge="1" parent="1" source="e7t6njS4XYZWmjXGl31m-1" target="e7t6njS4XYZWmjXGl31m-15">
          <mxGeometry relative="1" as="geometry" />
        </mxCell>
        <mxCell id="e7t6njS4XYZWmjXGl31m-1" value="Invoke&lt;br&gt;AzCommand" style="rounded=1;whiteSpace=wrap;html=1;fontSize=22;fillColor=#f8cecc;strokeColor=#b85450;" parent="1" vertex="1">
          <mxGeometry x="70" y="290" width="140" height="80" as="geometry" />
        </mxCell>
        <mxCell id="e7t6njS4XYZWmjXGl31m-5" style="edgeStyle=orthogonalEdgeStyle;shape=connector;rounded=1;orthogonalLoop=1;jettySize=auto;html=1;labelBackgroundColor=default;strokeColor=#004C99;strokeWidth=3;fontFamily=Helvetica;fontSize=22;fontColor=default;endArrow=classic;" parent="1" source="e7t6njS4XYZWmjXGl31m-2" target="e7t6njS4XYZWmjXGl31m-4" edge="1">
          <mxGeometry relative="1" as="geometry" />
        </mxCell>
        <mxCell id="e7t6njS4XYZWmjXGl31m-23" style="edgeStyle=orthogonalEdgeStyle;shape=connector;rounded=1;orthogonalLoop=1;jettySize=auto;html=1;entryX=0;entryY=0.5;entryDx=0;entryDy=0;labelBackgroundColor=default;strokeColor=#004C99;strokeWidth=3;fontFamily=Helvetica;fontSize=22;fontColor=default;endArrow=classic;" parent="1" source="e7t6njS4XYZWmjXGl31m-2" target="e7t6njS4XYZWmjXGl31m-22" edge="1">
          <mxGeometry relative="1" as="geometry" />
        </mxCell>
        <mxCell id="e7t6njS4XYZWmjXGl31m-2" value="Write&lt;br&gt;RemoteScript" style="rounded=1;whiteSpace=wrap;html=1;fontSize=22;fillColor=#dae8fc;strokeColor=#6c8ebf;" parent="1" vertex="1">
          <mxGeometry x="330" y="290" width="160" height="80" as="geometry" />
        </mxCell>
        <mxCell id="e7t6njS4XYZWmjXGl31m-4" value="Start&lt;br&gt;RunspaceJob" style="rounded=1;whiteSpace=wrap;html=1;fontSize=22;fillColor=#dae8fc;strokeColor=#6c8ebf;" parent="1" vertex="1">
          <mxGeometry x="590" y="290" width="200" height="80" as="geometry" />
        </mxCell>
        <mxCell id="e7t6njS4XYZWmjXGl31m-30" style="edgeStyle=orthogonalEdgeStyle;shape=connector;rounded=1;orthogonalLoop=1;jettySize=auto;html=1;labelBackgroundColor=default;strokeColor=#004C99;strokeWidth=3;fontFamily=Helvetica;fontSize=22;fontColor=default;endArrow=classic;" parent="1" source="e7t6njS4XYZWmjXGl31m-6" target="e7t6njS4XYZWmjXGl31m-29" edge="1">
          <mxGeometry relative="1" as="geometry" />
        </mxCell>
        <mxCell id="e7t6njS4XYZWmjXGl31m-6" value="Initialize&lt;br&gt;AzModule" style="rounded=1;whiteSpace=wrap;html=1;fontSize=22;fillColor=#f5f5f5;strokeColor=#666666;fontColor=#333333;" parent="1" vertex="1">
          <mxGeometry x="330" y="530" width="160" height="80" as="geometry" />
        </mxCell>
        <mxCell id="e7t6njS4XYZWmjXGl31m-14" style="edgeStyle=orthogonalEdgeStyle;shape=connector;rounded=1;orthogonalLoop=1;jettySize=auto;html=1;labelBackgroundColor=default;strokeColor=#004C99;strokeWidth=3;fontFamily=Helvetica;fontSize=22;fontColor=default;endArrow=classic;" parent="1" source="e7t6njS4XYZWmjXGl31m-7" target="e7t6njS4XYZWmjXGl31m-13" edge="1">
          <mxGeometry relative="1" as="geometry" />
        </mxCell>
        <mxCell id="e7t6njS4XYZWmjXGl31m-7" value="Invoke&lt;br&gt;RemoteScript" style="rounded=1;whiteSpace=wrap;html=1;fontSize=22;fillColor=#e1d5e7;strokeColor=#9673a6;" parent="1" vertex="1">
          <mxGeometry x="330" y="650" width="160" height="80" as="geometry" />
        </mxCell>
        <mxCell id="e7t6njS4XYZWmjXGl31m-10" value="1" style="ellipse;whiteSpace=wrap;html=1;aspect=fixed;rounded=1;strokeColor=#82b366;fontFamily=Helvetica;fontSize=22;fillColor=#d5e8d4;" parent="1" vertex="1">
          <mxGeometry x="320" y="280" width="30" height="30" as="geometry" />
        </mxCell>
        <mxCell id="e7t6njS4XYZWmjXGl31m-11" value="2" style="ellipse;whiteSpace=wrap;html=1;aspect=fixed;rounded=1;strokeColor=#82b366;fontFamily=Helvetica;fontSize=22;fillColor=#d5e8d4;" parent="1" vertex="1">
          <mxGeometry x="320" y="520" width="30" height="30" as="geometry" />
        </mxCell>
        <mxCell id="e7t6njS4XYZWmjXGl31m-12" value="3" style="ellipse;whiteSpace=wrap;html=1;aspect=fixed;rounded=1;strokeColor=#82b366;fontFamily=Helvetica;fontSize=22;fillColor=#d5e8d4;" parent="1" vertex="1">
          <mxGeometry x="320" y="640" width="30" height="30" as="geometry" />
        </mxCell>
        <mxCell id="e7t6njS4XYZWmjXGl31m-13" value="Invoke&lt;br&gt;AzVMRunCommand" style="rounded=1;whiteSpace=wrap;html=1;fontSize=22;fillColor=#e1d5e7;strokeColor=#9673a6;" parent="1" vertex="1">
          <mxGeometry x="590" y="650" width="220" height="80" as="geometry" />
        </mxCell>
        <mxCell id="e7t6njS4XYZWmjXGl31m-20" style="edgeStyle=orthogonalEdgeStyle;shape=connector;rounded=1;orthogonalLoop=1;jettySize=auto;html=1;labelBackgroundColor=default;strokeColor=#004C99;strokeWidth=3;fontFamily=Helvetica;fontSize=22;fontColor=default;endArrow=classic;" parent="1" source="e7t6njS4XYZWmjXGl31m-15" target="e7t6njS4XYZWmjXGl31m-19" edge="1">
          <mxGeometry relative="1" as="geometry" />
        </mxCell>
        <mxCell id="e7t6njS4XYZWmjXGl31m-15" value="Receive&lt;br&gt;RemoteOutput" style="rounded=1;whiteSpace=wrap;html=1;fontSize=22;fillColor=#ffe6cc;strokeColor=#d79b00;" parent="1" vertex="1">
          <mxGeometry x="330" y="790" width="180" height="80" as="geometry" />
        </mxCell>
        <mxCell id="e7t6njS4XYZWmjXGl31m-19" value="Expand&lt;br&gt;XmlString" style="rounded=1;whiteSpace=wrap;html=1;fontSize=22;fillColor=#ffe6cc;strokeColor=#d79b00;" parent="1" vertex="1">
          <mxGeometry x="590" y="790" width="160" height="80" as="geometry" />
        </mxCell>
        <mxCell id="e7t6njS4XYZWmjXGl31m-27" style="edgeStyle=orthogonalEdgeStyle;shape=connector;rounded=1;orthogonalLoop=1;jettySize=auto;html=1;labelBackgroundColor=default;strokeColor=#004C99;strokeWidth=3;fontFamily=Helvetica;fontSize=22;fontColor=default;endArrow=classic;" parent="1" source="e7t6njS4XYZWmjXGl31m-22" target="e7t6njS4XYZWmjXGl31m-26" edge="1">
          <mxGeometry relative="1" as="geometry" />
        </mxCell>
        <mxCell id="e7t6njS4XYZWmjXGl31m-22" value="Get&lt;br&gt;CompressedOutput" style="rounded=1;whiteSpace=wrap;html=1;fontSize=22;fillColor=#dae8fc;strokeColor=#6c8ebf;" parent="1" vertex="1">
          <mxGeometry x="590" y="410" width="200" height="80" as="geometry" />
        </mxCell>
        <mxCell id="e7t6njS4XYZWmjXGl31m-24" value="1" style="ellipse;whiteSpace=wrap;html=1;aspect=fixed;rounded=1;strokeColor=#82b366;fontFamily=Helvetica;fontSize=22;fillColor=#d5e8d4;" parent="1" vertex="1">
          <mxGeometry x="580" y="280" width="30" height="30" as="geometry" />
        </mxCell>
        <mxCell id="e7t6njS4XYZWmjXGl31m-25" value="2" style="ellipse;whiteSpace=wrap;html=1;aspect=fixed;rounded=1;strokeColor=#82b366;fontFamily=Helvetica;fontSize=22;fillColor=#d5e8d4;" parent="1" vertex="1">
          <mxGeometry x="580" y="400" width="30" height="30" as="geometry" />
        </mxCell>
        <mxCell id="e7t6njS4XYZWmjXGl31m-26" value="Compress&lt;br&gt;XmlString" style="rounded=1;whiteSpace=wrap;html=1;fontSize=22;fillColor=#dae8fc;strokeColor=#6c8ebf;" parent="1" vertex="1">
          <mxGeometry x="870" y="410" width="160" height="80" as="geometry" />
        </mxCell>
        <mxCell id="e7t6njS4XYZWmjXGl31m-29" value="Get/Set&lt;br&gt;AzContext" style="rounded=1;whiteSpace=wrap;html=1;fontSize=22;fillColor=#f5f5f5;strokeColor=#666666;fontColor=#333333;" parent="1" vertex="1">
          <mxGeometry x="590" y="530" width="160" height="80" as="geometry" />
        </mxCell>
        <mxCell id="_mrY1hBwHzIdx077osYN-3" value="4" style="ellipse;whiteSpace=wrap;html=1;aspect=fixed;rounded=1;strokeColor=#82b366;fontFamily=Helvetica;fontSize=22;fillColor=#d5e8d4;" vertex="1" parent="1">
          <mxGeometry x="320" y="780" width="30" height="30" as="geometry" />
        </mxCell>
      </root>
    </mxGraphModel>
  </diagram>
</mxfile>
